# xmcd CD database file
#
# Track frame offsets:
#	150
#	900
#	50461
#	332550
#
# Disc length: 4440 seconds
#
# Revision: 0
# Processed by: cddbd v1.5PL3 Copyright (c) Steve Scherf et al.
# Submitted via: CDex 1.51
#
DISCID=23115604
DTITLE=T.M.Revolution - Albireo -ｱﾙﾋﾞﾚｵ-
DYEAR=2004
DGENRE=J ポップ
TTITLE0=Ａｌｂｒｅｏ -アルビレオ-
TTITLE1=Ｇｏｉｎ’-タカノリのＣＤ~
TTITLE2=asd
TTITLE3=asfg
EXTD=YEAR: 2004
EXTT0=
EXTT1=
EXTT2=
EXTT3=
PLAYORDER=
